Coordinates
version=1
nRows=11
nColumns=63
inDegrees=yes

Units are S.I. units (second, meters, Newtons, ...)
If the header above contains a line with 'inDegrees', this indicates whether rotational values are in degrees (yes) or radians (no).

endheader
time	pelvis_tilt	pelvis_list	pelvis_rotation	pelvis_tx	pelvis_ty	pelvis_tz	hip_flexion_r	hip_adduction_r	hip_rotation_r	knee_angle_r	knee_angle_r_beta	ankle_angle_r	subtalar_angle_r	mtp_angle_r	hip_flexion_l	hip_adduction_l	hip_rotation_l	knee_angle_l	knee_angle_l_beta	ankle_angle_l	subtalar_angle_l	mtp_angle_l	L5_S1_Flex_Ext	L5_S1_Lat_Bending	L5_S1_axial_rotation	L4_L5_Flex_Ext	L4_L5_Lat_Bending	L4_L5_axial_rotation	L3_L4_Flex_Ext	L3_L4_Lat_Bending	L3_L4_axial_rotation	L2_L3_Flex_Ext	L2_L3_Lat_Bending	L2_L3_axial_rotation	L1_L2_Flex_Ext	L1_L2_Lat_Bending	L1_L2_axial_rotation	L1_T12_Flex_Ext	L1_T12_Lat_Bending	L1_T12_axial_rotation	Abs_r3	Abs_r2	Abs_r1	Abs_t1	Abs_t2	neck_flexion	neck_bending	neck_rotation	arm_flex_r	arm_add_r	arm_rot_r	elbow_flex_r	pro_sup_r	wrist_flex_r	wrist_dev_r	arm_flex_l	arm_add_l	arm_rot_l	elbow_flex_l	pro_sup_l	wrist_flex_l	wrist_dev_l
      1.95121951	      1.82625879	     -0.80536890	     93.81843100	      0.21115240	      0.83612631	      0.65237625	     -3.65058858	      2.60667494	     -3.77483292	     14.41927228	      0.25166378	     36.20675260	     -4.74768413	      0.00000000	      0.48670239	     -0.60847646	      4.96897718	     19.27229437	      0.33636499	     42.83150903	     -0.43148404	      0.00000000	      0.04258991	      0.90505546	      0.64764248	      0.07909372	      1.20372376	      0.68812014	      0.06997096	      2.20055185	      0.68812014	      0.04867600	      2.20055185	      0.56668717	      0.03954899	      1.84558910	      0.52620952	      0.02433587	      1.40193091	      0.48573186	      0.30421545	     10.23816839	      3.60199320	      0.00000000	      0.00000000	     20.17627625	      5.99964674	     26.12949960	     -9.11054020	    -23.13771350	     16.54328191	     83.47855070	     88.30018456	      3.76036037	     16.29287624	    164.71805708	    -47.79266431	     68.86979463	     46.79803889	     88.66965036	    -17.28999247	     -0.50406782
      1.97560976	      1.96330834	     -1.07744035	     95.17656392	      0.21023787	      0.83612706	      0.65369008	     -3.57967395	      2.89940852	     -4.93439935	     13.93418789	      0.24319746	     35.72277926	     -4.86134099	      0.00000000	      1.10881911	     -0.73619356	      6.35064895	     19.40524184	      0.33868536	     42.70845277	     -0.29932192	      0.00000000	      0.06974334	      0.90295094	      0.43953047	      0.12952035	      1.20092475	      0.46700113	      0.11458133	      2.19543491	      0.46700113	      0.07970966	      2.19543491	      0.38458916	      0.06476366	      1.84129755	      0.35711851	      0.03985134	      1.39867100	      0.32964785	      0.49816967	     10.21436159	      2.44453663	      0.00000000	      0.00000000	     21.35612032	      5.57670411	     25.78490308	     -7.77385905	    -22.38502028	     16.61030761	     84.86882282	     87.73440476	      2.56650496	     17.46975044	    165.10677228	    -47.82840901	     70.49933500	     45.59341451	     88.87733204	    -16.16657243	     -0.58306499
      2.00000000	      1.96171357	     -1.25425578	     96.73583981	      0.20918434	      0.83634770	      0.65501683	     -3.61440783	      3.07528244	     -6.19189520	     13.50016244	      0.23562228	     35.11427936	     -5.25016855	      0.00000000	      1.67924335	     -0.71592674	      7.89912187	     19.57022134	      0.34156480	     42.69011267	      0.03365630	      0.00000000	      0.09145443	      0.87825353	      0.19411105	      0.16984003	      1.16807719	      0.20624299	      0.15025049	      2.13538562	      0.20624299	      0.10452327	      2.13538562	      0.16984717	      0.08492459	      1.79093459	      0.15771523	      0.05225706	      1.36041471	      0.14558329	      0.65324987	      9.93497954	      1.07958743	      0.00000000	      0.00000000	     21.98481835	      5.96719689	     26.26564585	     -5.28774898	    -21.67412161	     17.32954577	     85.82050525	     87.50779146	      1.45682250	     17.96714920	    164.99868944	    -47.74577149	     71.08487905	     44.68016018	     88.90488272	    -15.77755019	     -0.52159976
      2.02439024	      1.81597065	     -1.28402459	     97.95998298	      0.20859925	      0.83699133	      0.65592408	     -3.79230150	      3.09861817	     -7.09483283	     13.14571017	      0.22943592	     34.48572043	     -5.72848528	      0.00000000	      1.95200869	     -0.57937182	      9.09232856	     19.58172373	      0.34176555	     42.69389762	      0.48907061	      0.00000000	      0.10526939	      0.83142098	      0.02501233	      0.19549578	      1.10578990	      0.02657560	      0.17294708	      2.02151696	      0.02657560	      0.12031238	      2.02151696	      0.02188579	      0.09775315	      1.69543366	      0.02032252	      0.06015093	      1.28787109	      0.01875925	      0.75192871	      9.40520038	      0.13911107	      0.00000000	      0.00000000	     22.15577841	      6.58999770	     26.51521967	     -1.69803240	    -21.28658456	     18.84144544	     86.29414232	     87.91014527	      1.00291778	     17.46764164	    164.24760115	    -47.70339655	     70.49956715	     44.34040817	     88.79102334	    -16.13179365	     -0.38852325
      2.04878049	      1.63117045	     -1.24182161	     99.49198560	      0.20766901	      0.83774481	      0.65640001	     -4.17879561	      3.16317059	     -8.04249114	     12.59501620	      0.21982450	     33.75490928	     -6.53798340	      0.00000000	      2.07876648	     -0.42361749	     10.55096837	     19.50366848	      0.34040323	     42.61679204	      1.02614792	      0.00000000	      0.12640831	      0.77629805	     -0.19144331	      0.23475286	      1.03247641	     -0.20340851	      0.20767620	      1.88749108	     -0.20340851	      0.14447205	      1.88749108	     -0.16751289	      0.11738275	      1.58302699	     -0.15554769	      0.07222971	      1.20248568	     -0.14358248	      0.90292188	      8.78163882	     -1.06475023	      0.00000000	      0.00000000	     22.01239735	      7.36116707	     26.73139226	      2.74650041	    -21.46157772	     21.31934758	     86.56138358	     88.33003714	      0.31450335	     15.28778047	    163.19757179	    -47.77080945	     69.21331884	     44.53195896	     88.57680529	    -16.82618829	     -0.26318987
      2.07317073	      1.36319099	     -1.09756128	    100.47689005	      0.20734495	      0.83851048	      0.65651240	     -4.63806385	      3.11253855	     -8.46345657	     12.16392618	      0.21230056	     33.19423378	     -7.28703466	      0.00000000	      1.90850213	     -0.26072363	     11.25679448	     19.28531924	      0.33659232	     42.41412242	      1.54616893	      0.00000000	      0.12665909	      0.71444996	     -0.31057297	      0.23521859	      0.95021844	     -0.32998378	      0.20808822	      1.73711363	     -0.32998378	      0.14475867	      1.73711363	     -0.27175135	      0.11761563	      1.45690635	     -0.25234054	      0.07237300	      1.10668298	     -0.23292973	      0.90471321	      8.08200082	     -1.72731369	      0.00000000	      0.00000000	     21.94298039	      8.02672862	     26.51764130	      8.22785336	    -22.08867471	     24.44858538	     86.68877272	     88.59088226	      0.01439945	     12.74478552	    162.20059264	    -47.89393028	     68.03230563	     45.11562929	     88.30353067	    -17.73115396	     -0.28309587
      2.09756098	      1.18211269	     -0.94333456	    101.19792376	      0.20718541	      0.83905822	      0.65634136	     -5.09599642	      3.13538414	     -8.57577780	     11.72040120	      0.20455959	     32.70167177	     -7.91430244	      0.00000000	      1.66789857	     -0.26729782	     11.25323471	     19.05949607	      0.33265096	     42.15167975	      2.21287836	      0.00000000	      0.12210805	      0.67073174	     -0.36083898	      0.22676687	      0.89207322	     -0.38339142	      0.20061132	      1.63081715	     -0.38339142	      0.13955729	      1.63081715	     -0.31573411	      0.11338954	      1.36775617	     -0.29318167	      0.06977254	      1.03896347	     -0.27062924	      0.87220562	      7.58745160	     -2.00687818	      0.00000000	      0.00000000	     21.97527254	      8.57195347	     26.27550798	     14.55042726	    -22.89866331	     27.83726750	     86.65020621	     88.60825669	     -1.11394967	     10.02122508	    161.39905003	    -48.05114795	     67.50685716	     45.73747806	     88.12226197	    -18.14806537	     -0.64056865
      2.12195122	      1.04777811	     -0.73507054	    101.64350181	      0.20730064	      0.83952348	      0.65582975	     -5.59605885	      3.17280013	     -8.74571352	     11.29978854	      0.19721851	     32.34749705	     -7.92010131	      0.00000000	      1.28757058	     -0.40359440	     10.66222726	     18.80673550	      0.32823946	     41.86054422	      2.95627488	      0.00000000	      0.10907088	      0.64254423	     -0.32574554	      0.20255554	      0.85458383	     -0.34610463	      0.17919256	      1.56228204	     -0.34610463	      0.12465711	      1.56228204	     -0.28502734	      0.10128322	      1.31027620	     -0.26466825	      0.06232310	      0.99530101	     -0.24430915	      0.77908242	      7.26858885	     -1.81169895	      0.00000000	      0.00000000	     22.00746639	      8.58991076	     25.80299186	     21.20869581	    -23.45031412	     30.59076193	     86.79614856	     88.29100036	     -2.14169758	      8.57329210	    160.31256216	    -48.19598736	     66.95164501	     46.33978636	     88.07054527	    -18.12429050	     -1.25847996
      2.14634146	      0.84774158	     -0.56279831	    101.92316426	      0.20754839	      0.83994941	      0.65498111	     -6.09320201	      3.10648858	     -9.09792140	     10.88738763	      0.19002076	     32.15177562	     -7.40426168	      0.00000000	      0.85525845	     -0.50197671	      9.69814129	     18.51723129	      0.32318665	     41.36871033	      3.72080249	      0.00000000	      0.09584817	      0.61550562	     -0.25535067	      0.17799963	      0.81862248	     -0.27131009	      0.15746896	      1.49654037	     -0.27131009	      0.10954487	      1.49654037	     -0.22343184	      0.08900461	      1.25513906	     -0.20747242	      0.05476764	      0.95341821	     -0.19151300	      0.68463388	      6.96272269	     -1.42018383	      0.00000000	      0.00000000	     22.02228734	      8.36428689	     25.19552886	     27.83317817	    -23.83636799	     32.67442329	     88.11240180	     86.67159022	     -2.70165122	      9.21988835	    158.76024882	    -48.55643765	     65.65575869	     47.34345577	     88.11758719	    -17.76847413	     -1.60381988
      2.17073171	      0.52840202	     -0.41685338	    101.95154351	      0.20823957	      0.84030288	      0.65365471	     -6.57557538	      2.87105385	     -9.78755860	     10.58398360	      0.18472536	     32.18655758	     -6.40590918	      0.00000000	      0.35905552	     -0.52746229	      8.30110014	     18.19250843	      0.31751917	     40.93162894	      4.82184923	      0.00000000	      0.08882069	      0.57224482	     -0.14556433	      0.16494891	      0.76108561	     -0.15466210	      0.14592352	      1.39135605	     -0.15466210	      0.10151317	      1.39135605	     -0.12736879	      0.08247889	      1.16692163	     -0.11827102	      0.05075214	      0.88640722	     -0.10917324	      0.63443732	      6.47334781	     -0.80958511	      0.00000000	      0.00000000	     22.01027880	      8.40841338	     24.41978450	     34.42968399	    -23.95873484	     34.15198312	     90.63158526	     78.38420353	     -2.65721371	     11.82691614	    155.96479755	    -49.06340190	     61.96457803	     49.26353206	     88.11890357	    -16.38421570	     -0.87915275
      2.19512195	      0.04067126	     -0.24488538	    101.75739835	      0.20927972	      0.84095885	      0.65212164	     -7.07865093	      2.42235363	    -10.50019792	     10.37039565	      0.18099755	     32.22642602	     -5.29399244	      0.00000000	     -0.26681546	     -0.38496668	      6.73579495	     17.75328126	      0.30985321	     40.44656497	      6.07013961	      0.00000000	      0.08666602	      0.50589093	      0.00375548	      0.16094747	      0.67283494	      0.00399020	      0.14238361	      1.23002321	      0.00399020	      0.09905060	      1.23002321	      0.00328605	      0.08047807	      1.03161278	      0.00305133	      0.04952096	      0.78362505	      0.00281661	      0.61904673	      5.72273937	      0.02088686	      0.00000000	      0.00000000	     21.96411086	      8.49327920	     23.29322922	     41.21831970	    -23.48840182	     35.06965329	     93.18286707	     63.41689802	     -2.92696239	     14.30048182	    151.17534470	    -49.39302360	     54.55230344	     52.00848083	     87.96257298	    -12.88651226	      0.88631449
